<?xml version="1.0" encoding="UTF-8"?>
<!DOCTYPE svg PUBLIC "-//W3C//DTD SVG 1.1//EN" "http://www.w3.org/Graphics/SVG/1.1/DTD/svg11.dtd">
<!-- Creator: CorelDRAW -->
<svg xmlns="http://www.w3.org/2000/svg" xml:space="preserve" width="1026px" height="265px" style="shape-rendering:geometricPrecision; text-rendering:geometricPrecision; image-rendering:optimizeQuality; fill-rule:evenodd; clip-rule:evenodd"
viewBox="0 0 164.974 42.5415"
 xmlns:xlink="http://www.w3.org/1999/xlink">
 <defs>
  <style type="text/css">
   <![CDATA[
    .fil0 {fill:none}
    .fil1 {fill:#9ba3a2}
    .fil2 {fill:#4d4996}
    .fil3 {fill:#EF7F1A}
    .fil4 {fill:#FEFEFE}
   ]]>
  </style>
 </defs>
 <g id="Layer_x0020_1">
  <metadata id="CorelCorpID_0Corel-Layer"/>
  <rect class="fil0" width="164.974" height="42.5415"/>
  <path class="fil1" d="M14.2699 39.7307l1.45126 0 0 -2.76863 2.28266 -4.20242 -1.60185 0 -1.39144 2.73901 -1.38118 -2.73901 -1.64173 0 2.28228 4.22198 0 2.74907zm3.82071 0l1.46151 0 0.510466 -1.51374 2.41218 0 0.520721 1.51374 1.5012 0 -2.51245 -7.01036 -1.38118 0 -2.51245 7.01036zm2.41218 -2.78838l0.771016 -2.27051 0.760761 2.27051 -1.53178 0zm5.40224 2.78838l4.98483 0 0 -1.28433 -3.19269 0 3.19269 -4.58128 0 -1.10544 -4.88475 0 0 1.28471 3.09299 0 -3.19307 4.58052 0 1.10582zm6.96402 0l1.45126 0 0 -6.97105 -1.45126 0 0 6.97105zm3.63042 0l4.28408 0 0 -1.32421 -2.83263 0 0 -5.64684 -1.45145 0 0 6.97105zm6.03273 0l1.45164 0 0 -6.97105 -1.45164 0 0 6.97105zm3.6308 0l1.41119 0 0 -4.43125 1.64154 2.85751 0.030195 0 1.6518 -2.87802 0 4.45176 1.42106 0 0 -6.97105 -1.5314 0 -1.54146 2.82826 -1.56159 -2.82826 -1.52133 0 0 6.97105zm11.1178 0.0997004c1.07107,0 1.74143,-0.398801 2.3723,-1.04581l-0.871096 -1.02587c-0.470396,0.468307 -0.880782,0.726958 -1.44138,0.726958 -0.930917,0 -1.65161,-0.846599 -1.65161,-2.23025l0 -0.0305748c0,-1.35365 0.690876,-2.22018 1.63148,-2.22018 0.570666,0 1.01125,0.268716 1.4317,0.696763l0.870717 -1.11494c-0.540471,-0.547497 -1.21122,-0.926549 -2.25247,-0.926549 -1.85158,0 -3.17294,1.43398 -3.17294,3.54516l0 0.0902051c0,2.13093 1.24122,3.53509 3.08331,3.53509zm4.1407 -0.0997004l1.45164 0 0 -6.97105 -1.45164 0 0 6.97105zm3.6308 0l4.28408 0 0 -1.32421 -2.83263 0 0 -5.64684 -1.45145 0 0 6.97105zm5.44193 0l1.46151 0 0.510466 -1.51374 2.41256 0 0.520341 1.51374 1.50158 0 -2.51264 -7.01036 -1.38099 0 -2.51283 7.01036zm2.41256 -2.78838l0.770636 -2.27051 0.760761 2.27051 -1.5314 0zm5.59253 2.78838l1.45126 0 0 -2.29026 0.910977 0 1.29117 2.29026 1.66186 0 -1.49171 -2.58879c0.770636,-0.338791 1.30142,-1.00631 1.30142,-2.0618l0 -0.04026c0,-0.686318 -0.210605,-1.23439 -0.590796,-1.61306 -0.440581,-0.438112 -1.09082,-0.667138 -1.90152,-0.667138l-2.63266 0 0 6.97105zm1.45126 -3.56491l0 -2.10168 1.04106 0c0.740631,0 1.17115,0.348477 1.17115,1.04619l0 0.00968518c0,0.627258 -0.400701,1.04581 -1.14114,1.04581l-1.07107 0zm7.79467 3.56491l1.45126 0 0 -2.75876 2.69267 0 0 -1.32402 -2.69267 0 0 -1.56406 3.06318 0 0 -1.32421 -4.51443 0 0 6.97105zm6.27315 0l4.55431 0 0 -1.30446 -3.11293 0 0 -1.554 2.70254 0 0 -1.30446 -2.70254 0 0 -1.50367 3.07267 0 0 -1.30446 -4.51405 0 0 6.97105zm6.42336 0l2.26215 0c2.0318,0 3.3431,-1.40397 3.3431,-3.44545l0 -0.0898253c0,-2.04148 -1.3113,-3.43577 -3.3431,-3.43577l-2.26215 0 0 6.97105zm2.25209 -5.66659c1.10069,0 1.85158,0.776523 1.85158,2.16074l0 0.0503249c0,1.38441 -0.750886,2.15106 -1.85158,2.15106l-0.801211 0 0 -4.36213 0.801211 0zm5.22183 5.66659l4.55431 0 0 -1.30446 -3.11312 0 0 -1.554 2.70311 0 0 -1.30446 -2.70311 0 0 -1.50367 3.07324 0 0 -1.30446 -4.51443 0 0 6.97105zm6.42317 0l1.45145 0 0 -2.29026 0.910977 0 1.29117 2.29026 1.66167 0 -1.49152 -2.58879c0.770826,-0.338791 1.30123,-1.00631 1.30123,-2.0618l0 -0.04026c0,-0.686318 -0.210035,-1.23439 -0.590606,-1.61306 -0.440201,-0.438112 -1.09082,-0.667138 -1.90171,-0.667138l-2.63266 0 0 6.97105zm1.45145 -3.56491l0 -2.10168 1.04087 0c0.740821,0 1.17134,0.348477 1.17134,1.04619l0 0.00968518c0,0.627258 -0.400321,1.04581 -1.14114,1.04581l-1.07107 0zm5.02186 3.56491l1.46132 0 0.510656 -1.51374 2.41218 0 0.520721 1.51374 1.50158 0 -2.51283 -7.01036 -1.38137 0 -2.51226 7.01036zm2.41256 -2.78838l0.770446 -2.27051 0.760951 2.27051 -1.5314 0zm7.60419 2.87802c1.36124,0 2.35217,-0.797033 2.35217,-2.09143l0 -0.0197502c0,-1.0855 -0.660681,-1.60337 -1.88177,-2.08098 -1.09082,-0.448177 -1.33143,-0.637703 -1.33143,-1.03612l0 -0.010065c0,-0.358162 0.310685,-0.607508 0.810706,-0.607508 0.540851,0 1.05151,0.288846 1.49171,0.647388l0.811086 -1.09556c-0.640931,-0.577123 -1.44157,-0.856284 -2.26253,-0.856284 -1.35099,0 -2.29216,0.826848 -2.29216,2.0411l0 0.02013c0,1.19508 0.770826,1.66338 2.01186,2.14099 1.00099,0.379051 1.20134,0.598012 1.20134,0.946299l0 0.00968518c0,0.408866 -0.340311,0.687648 -0.900912,0.687648 -0.700941,0 -1.27142,-0.378672 -1.74181,-0.786968l-0.860652 1.06537c0.770636,0.717463 1.70155,1.02606 2.5924,1.02606zm5.5724 -0.0896354l1.45164 0 0 -2.76863 2.28228 -4.20242 -1.60185 0 -1.39144 2.73901 -1.38118 -2.73901 -1.64173 0 2.28228 4.22198 0 2.74907zm7.67465 0.119451c1.85158,0 3.17294,-1.47386 3.17294,-3.55484l0 -0.11964c0,-2.08174 -1.30123,-3.53547 -3.16326,-3.53547 -1.85177,0 -3.17313,1.46417 -3.17313,3.55522l0 0.119071c0,2.08155 1.30123,3.53566 3.16345,3.53566zm0.00968518 -1.33428c-0.970987,0 -1.68161,-0.866349 -1.68161,-2.24069l0 -0.0700751c0,-1.37397 0.690876,-2.23063 1.67193,-2.23063 0.970797,0 1.67136,0.866159 1.67136,2.24069l0 0.0700751c0,1.37435 -0.690496,2.23063 -1.66167,2.23063zm5.04199 1.21483l1.42144 0 0 -4.21248 2.77281 4.21248 1.24122 0 0 -6.97105 -1.42163 0 0 4.0636 -2.68241 -4.0636 -1.33143 0 0 6.97105zm10.1271 0.109765c1.62141,0 2.68241,-0.926549 2.68241,-2.84877l0 -4.23204 -1.44119 0 0 4.30212c0,0.966049 -0.470396,1.44366 -1.22109,1.44366 -0.750886,0 -1.22166,-0.487677 -1.22166,-1.47348l0 -4.2723 -1.45126 0 0 4.26224c0,1.88196 1.04125,2.81858 2.65279,2.81858z"/>
  <path class="fil2" d="M38.822 2.32027l0 14.0625c0,2.20252 0.3819,3.73506 1.13981,4.60179 0.76342,0.861411 2.07548,1.29231 3.93674,1.29231 1.84569,0 3.153,-0.435643 3.91623,-1.30275 0.758103,-0.867488 1.13943,-2.39927 1.13943,-4.59134l0 -14.0625 4.737 0 0 14.1937c0,1.66243 -0.104638,2.9931 -0.313724,3.99618 -0.209276,1.00308 -0.543699,1.77808 -1.00403,2.33375 -0.888758,1.09632 -2.02306,1.90836 -3.39836,2.43782 -1.38004,0.528317 -3.06868,0.790766 -5.07124,0.790766 -2.03351,0 -3.72746,-0.256752 -5.09232,-0.775004 -1.36447,-0.517492 -2.49916,-1.3358 -3.4088,-2.45358 -0.439061,-0.555663 -0.76342,-1.31889 -0.972506,-2.2952 -0.209276,-0.976114 -0.313534,-2.31799 -0.313534,-4.03473l0 -14.1937 4.70529 0zm15.8417 0l5.33255 0 5.56309 8.96981 5.6307 -8.96981 5.4951 0 -8.6895 13.1189 0 10.3709 -4.737 0 0 -10.3709 -8.59493 -13.1189zm30.0051 4.67813l-3.29372 9.02944 6.70765 0 -3.41393 -9.02944zm-2.32653 -4.67813l5.02433 0 9.6039 23.4898 -5.27007 0 -2.07016 -5.59443 -9.78754 0 -2.0073 5.59443 -5.02433 0 9.53117 -23.4898z"/>
  <path class="fil3" d="M98.3824 15.0082c0,-3.0043 0.172244,-5.2074 0.512175,-6.59713 0.345248,-1.39619 0.941172,-2.54131 1.79347,-3.43007 0.852106,-0.888378 1.99724,-1.55362 3.42969,-1.99572 1.43246,-0.44134 3.21567,-0.665049 5.33805,-0.665049l7.20957 0 0 4.08904 -7.61749 0c-2.04927,0 -3.54971,0.452735 -4.48557,1.35801 -0.460331,0.44191 -0.815644,1.03612 -1.0667,1.7665 -0.251055,0.736643 -0.376583,1.59255 -0.376583,2.56866l13.5463 0 0 4.08904 -13.5463 0 0 9.61852 -4.73662 0 0 -10.8018zm30.7003 -8.59892c-1.70972,0 -3.01133,0.447417 -3.90541,1.34719 -0.449696,0.468687 -0.800262,1.04695 -1.05606,1.73972 -0.256372,0.686888 -0.387217,1.47765 -0.387217,2.37724l13.1546 0 0 4.08923 -13.1546 0c0,2.04528 0.413234,3.51743 1.24464,4.41663 0.825899,0.894455 2.20081,1.34187 4.11962,1.34187l7.7903 0 0 4.08885 -8.00983 0c-0.878503,0 -1.66262,-0.038171 -2.35787,-0.114133 -0.695244,-0.0708347 -1.29648,-0.190855 -1.80904,-0.348856 -1.0196,-0.32151 -1.97122,-0.851156 -2.84953,-1.59786 -1.13431,-0.948768 -2.00217,-2.19778 -2.60379,-3.74038 -0.287137,-0.76361 -0.50173,-1.60337 -0.64283,-2.51359 -0.14129,-0.910407 -0.214593,-1.91956 -0.214593,-3.01532 0,-4.15551 0.862741,-7.21945 2.58328,-9.19313 1.71959,-1.97995 4.39688,-2.96651 8.03034,-2.96651l7.87386 0 0 4.08904 -7.80587 0zm22.1521 0l-5.48428 0 0 15.3119 5.48428 0c2.08098,0 3.52389,-0.545978 4.32377,-1.63623 0.799882,-1.09575 1.20267,-3.10268 1.20267,-6.01981 0,-2.88979 -0.397662,-4.88513 -1.19223,-5.99209 -0.799882,-1.10715 -2.24278,-1.66376 -4.33421,-1.66376zm-10.2213 -4.08904l10.3102 0c3.60232,0 6.2741,0.992066 8.00983,2.97183 1.73574,1.9847 2.6036,5.04389 2.6036,9.18782 0,2.13169 -0.287707,3.9694 -0.867868,5.52378 -0.575414,1.54773 -1.43758,2.79674 -2.59316,3.74551 -0.878313,0.725059 -1.82993,1.25452 -2.84953,1.59786 -0.52262,0.158001 -1.10848,0.278022 -1.76726,0.348856 -0.658592,0.0759622 -1.45847,0.114133 -2.39965,0.114133l-10.4461 0 0 -23.4898z"/>
  <polygon class="fil3" points="40.0423,2.30963 43.2094,2.30963 43.2094,5.47706 40.0423,5.47706 "/>
  <polygon class="fil3" points="44.6582,2.30963 47.8252,2.30963 47.8252,5.47706 44.6582,5.47706 "/>
  <path class="fil2" d="M18.5636 8.09757l0 0.712905 2.72609 0c0.136162,-0.386458 0.115273,-0.3819 0.373354,-0.661441l0.0955225 -0.104258c0.0125338,-0.0102549 0.106917,-0.192754 0.60295,-0.154583 0.272135,0.0199401 0.568577,0.143948 0.740441,0.324169 0.940412,0.989787 -0.38114,2.35559 -1.27844,1.78625 -0.0157622,-0.0106347 -0.0611496,-0.0434884 -0.0765319,-0.0552625l-0.0755824 -0.0592505c-0.148126,-0.131035 -0.326068,-0.433364 -0.383989,-0.647198l-5.21234 0.00987508c-0.274983,0.105018 -0.175663,0.428427 0.357782,0.423489 0.709867,-0.0068366 1.42125,-0.0068366 2.13074,-0.00493754l0 4.92083 4.25996 0.00968518c0.552435,-0.032094 0.266817,0.00835584 0.54218,-0.431085l0.163888 -0.236432c0.0672265,-0.070265 0.159141,-0.12154 0.280111,-0.158191 0.185728,-0.0567817 0.567438,-0.0892556 0.732845,0.032094 0.16161,-0.0801401 0.219531,0.0191805 0.203958,-0.641121l-0.00493754 -3.63859c0,-1.84778 -0.617573,-1.42695 3.1887,-1.42695 1.12918,0 2.25798,0 3.38753,0l0 -5.77711 -19.3969 -0.000379811 0 1.14133c-0.510466,0 -0.796843,-0.131225 -0.597633,0.427667 0.432225,0 6.30904,0.0736833 6.77754,-0.0495653 0.0951426,-0.0244978 0.0959023,-0.0797603 0.166547,-0.226747 0.513884,-1.07069 1.70801,-0.524709 1.92526,0.0632385 0.101979,0.276123 0.0564019,1.05625 -0.373164,1.36143 -0.594024,0.42197 -0.80406,0.145088 -1.32193,-0.00645679 -0.0645679,-0.107297 -0.117172,-0.179081 -0.186297,-0.315433l-0.146227 -0.398422 -4.64984 0c-0.306318,0 -1.31813,-0.135023 -1.46132,0.0717843l-0.0660871 0.000379811c0,0.513694 0.0951426,1.23875 -0.108436,1.52551 -0.0102549,0.0146227 -0.0263969,0.0263969 -0.0366518,0.0387407 -0.156292,0.196552 -0.12154,-0.106157 -0.1204,0.360441l2.72343 0c0.334044,-0.793615 0.96529,-1.05094 1.50177,-0.775194 0.147746,0.076342 0.443809,0.328347 0.525848,0.495653 0.143189,0.292834 0.130655,0.908698 -0.145088,1.23287 -0.419311,0.492615 -1.07373,0.526228 -1.44157,0.204718 -0.127806,-0.111475 -0.440201,-0.709867 -0.505908,-0.608647l-0.130085 -0.0355123c-0.0233584,-0.00455773 -0.0398801,-0.00759622 -0.0664669,-0.0106347l-2.19645 -0.00379811 0 1.28414 6.57586 0zm-16.1771 -4.70168l6.18256 0c0.115273,0 0.208896,0.0934335 0.208896,0.209086l0 0c0,0.115083 -0.0936234,0.208516 -0.208896,0.208516l-6.18256 0c-0.115273,0 -0.208896,-0.0934335 -0.208896,-0.208516l0 0c0,-0.115652 0.0936234,-0.209086 0.208896,-0.209086zm6.40171 5.72356l1.04315 0c0.115083,0 0.208896,0.0949527 0.208896,0.209466l0 0c0,0.114703 -0.0938133,0.209276 -0.208896,0.209276l-1.04315 0c-0.114893,0 -0.208516,-0.0945729 -0.208516,-0.209276l0 0c0,-0.114513 0.0936234,-0.209466 0.208516,-0.209466zm2.1239 0.153823l2.27431 0c0.115273,0 0.208896,0.0947628 0.208896,0.208896l0 0.000379811c0,0.114893 -0.0936234,0.208896 -0.208896,0.208896l-2.27431 0c-0.114703,0 -0.208896,-0.0940032 -0.208896,-0.208896l0 -0.000379811c0,-0.114133 0.0941931,-0.208896 0.208896,-0.208896zm4.53057 -3.27283c0.277642,0 0.50287,0.242129 0.50287,0.540661 0,0.298531 -0.225228,0.539901 -0.50287,0.539901 -0.278022,0 -0.503249,-0.24137 -0.503249,-0.539901 0,-0.298531 0.225228,-0.540661 0.503249,-0.540661zm3.71968 -2.43592c0.278022,0 0.503629,0.24137 0.503629,0.539901 0,0.297962 -0.225608,0.540091 -0.503629,0.540091 -0.277642,0 -0.50287,-0.242129 -0.50287,-0.540091 0,-0.298531 0.225228,-0.539901 0.50287,-0.539901zm3.13534 4.82284c0.278022,0 0.503249,0.24175 0.503249,0.539901 0,0.299101 -0.225228,0.540661 -0.503249,0.540661 -0.277642,0 -0.50287,-0.24156 -0.50287,-0.540661 0,-0.298152 0.225228,-0.539901 0.50287,-0.539901zm-8.06168 0.732086l1.04296 0c0.114513,0 0.208706,0.0949527 0.208706,0.209466l0 0c0,0.114703 -0.0941931,0.209276 -0.208706,0.209276l-1.04296 0c-0.115273,0 -0.208896,-0.0945729 -0.208896,-0.209276l0 0c0,-0.114513 0.0936234,-0.209466 0.208896,-0.209466zm-4.2461 -5.72356l0.831216 0c0.114893,0 0.208896,0.0934335 0.208896,0.209086l0 0c0,0.115083 -0.0940032,0.208516 -0.208896,0.208516l-0.831216 0c-0.115273,0 -0.208896,-0.0934335 -0.208896,-0.208516l0 0c0,-0.115652 0.0936234,-0.209086 0.208896,-0.209086zm-3.19421 2.41826l4.47607 0c0.114513,0 0.208516,0.0934335 0.208516,0.208706l0 0c0,0.115463 -0.0940032,0.208896 -0.208516,0.208896l-4.47607 0c-0.114513,0 -0.208516,-0.0934335 -0.208516,-0.208896l0 0c0,-0.115273 0.0940032,-0.208706 0.208516,-0.208706z"/>
  <path class="fil3" d="M17.368 15.1592c0.0676063,0.38228 -0.00721641,0.0715944 0.133124,0.356832l1.06271 0 0 3.9939c2.19094,0 1.08075,0.136732 1.77353,-0.590606 0.177182,-0.185538 0.299861,-0.328916 0.621371,-0.343729 0.615104,-0.0294353 1.10563,0.399941 1.18121,0.900532 0.0552625,0.363289 -0.0594404,0.661061 -0.203579,0.866729 -0.149266,0.214023 -0.387027,0.403549 -0.639222,0.445328 -0.669227,0.111854 -1.15045,-0.310116 -1.20552,-0.850207l-4.11867 0c-0.553574,-0.00189905 -0.942311,-0.166927 -0.730187,0.428237l3.32107 0 0 5.70628 6.17819 0 -0.000379811 -10.2c-0.520531,-0.000759622 -0.709297,0.245548 -1.17077,-0.1806 -0.128376,-0.119071 -0.0592505,-0.0338032 -0.163888,-0.185158 -0.104068,-0.150785 -0.167687,-0.239661 -0.193514,-0.490716l-4.5828 0c-0.681191,0 -0.92389,-0.0951426 -1.26268,0.143189z"/>
  <path class="fil3" d="M16.3182 14.9383l0.677203 0c0.114703,0 0.208896,0.0940032 0.208896,0.208706l0 0c0,0.114703 -0.0941931,0.209276 -0.208896,0.209276l-0.677203 0c-0.115083,0 -0.208706,-0.0945729 -0.208706,-0.209276l0 0c0,-0.114703 0.0936234,-0.208706 0.208706,-0.208706z"/>
  <path class="fil3" d="M14.3293 19.8873l0.303089 0c0.114703,0 0.208706,0.0945729 0.208706,0.209276l0 0c0,0.114703 -0.0940032,0.208896 -0.208706,0.208896l-0.303089 0c-0.114703,0 -0.208706,-0.0941931 -0.208706,-0.208896l0 0c0,-0.114703 0.0940032,-0.209276 0.208706,-0.209276z"/>
  <path class="fil3" d="M24.1695 14.2414c0.278022,0 0.503439,0.24137 0.503439,0.540281 0,0.297772 -0.225418,0.540091 -0.503439,0.540091 -0.277642,0 -0.50287,-0.242319 -0.50287,-0.540091 0,-0.298911 0.225228,-0.540281 0.50287,-0.540281z"/>
  <path class="fil3" d="M21.0347 19.1155c0.277642,0 0.50268,0.24156 0.50268,0.540091 0,0.297772 -0.225038,0.539901 -0.50268,0.539901 -0.278022,0 -0.503249,-0.242129 -0.503249,-0.539901 0,-0.298531 0.225228,-0.540091 0.503249,-0.540091z"/>
  <path class="fil3" d="M11.9376 14.9383l3.32562 0c0.114703,0 0.208896,0.0940032 0.208896,0.208706l0 0c0,0.114703 -0.0941931,0.209276 -0.208896,0.209276l-3.32562 0c-0.115083,0 -0.208706,-0.0945729 -0.208706,-0.209276l0 0c0,-0.114703 0.0936234,-0.208706 0.208706,-0.208706z"/>
  <path class="fil4" d="M24.1151 17.3718l0.677203 0c0.114703,0 0.208516,0.0941931 0.208516,0.208706l0 0.000569716c0,0.114513 -0.0938133,0.208706 -0.208516,0.208706l-0.677203 0c-0.115083,0 -0.208706,-0.0941931 -0.208706,-0.208706l0 -0.000569716c0,-0.114513 0.0936234,-0.208706 0.208706,-0.208706z"/>
  <path class="fil4" d="M19.7348 17.3718l3.32543 0c0.114703,0 0.208516,0.0941931 0.208516,0.208706l0 0.000569716c0,0.114513 -0.0938133,0.208706 -0.208516,0.208706l-3.32543 0c-0.115083,0 -0.208896,-0.0941931 -0.208896,-0.208706l0 -0.000569716c0,-0.114513 0.0938133,-0.208706 0.208896,-0.208706z"/>
  <path class="fil3" d="M14.6066 17.3718l3.32562 0c0.114513,0 0.208706,0.0941931 0.208706,0.208706l0 0.000569716c0,0.114513 -0.0941931,0.208706 -0.208706,0.208706l-3.32562 0c-0.114703,0 -0.208896,-0.0941931 -0.208896,-0.208706l0 -0.000569716c0,-0.114513 0.0941931,-0.208706 0.208896,-0.208706z"/>
  <path class="fil3" d="M10.0164 14.9383l0.677203 0c0.114703,0 0.208516,0.0940032 0.208516,0.208706l0 0c0,0.114703 -0.0938133,0.209276 -0.208516,0.209276l-0.677203 0c-0.115083,0 -0.208706,-0.0945729 -0.208706,-0.209276l0 0c0,-0.114703 0.0936234,-0.208706 0.208706,-0.208706z"/>
  <path class="fil3" d="M5.63601 14.9383l3.32543 0c0.114703,0 0.208896,0.0940032 0.208896,0.208706l0 0c0,0.114703 -0.0941931,0.209276 -0.208896,0.209276l-3.32543 0c-0.114703,0 -0.208896,-0.0945729 -0.208896,-0.209276l0 0c0,-0.114703 0.0941931,-0.208706 0.208896,-0.208706z"/>
  <path class="fil3" d="M10.0965 19.967l3.32543 0c0.114703,0 0.208896,0.0936234 0.208896,0.208326l0 0.000759622c0,0.114703 -0.0941931,0.208136 -0.208896,0.208136l-3.32543 0c-0.114703,0 -0.208896,-0.0934335 -0.208896,-0.208136l0 -0.000759622c0,-0.114703 0.0941931,-0.208326 0.208896,-0.208326z"/>
  <path class="fil4" d="M19.1468 23.2032l3.64258 0c0.114703,0 0.208896,0.0932436 0.208896,0.208326l0 0c0,0.115463 -0.0941931,0.208896 -0.208896,0.208896l-3.64258 0c-0.115083,0 -0.208896,-0.0934335 -0.208896,-0.208896l0 0c0,-0.115083 0.0938133,-0.208326 0.208896,-0.208326z"/>
  <path class="fil3" d="M14.7663 23.2032l3.32562 0c0.114703,0 0.208706,0.0932436 0.208706,0.208326l0 0c0,0.115463 -0.0940032,0.208896 -0.208706,0.208896l-3.32562 0c-0.114703,0 -0.208706,-0.0934335 -0.208706,-0.208896l0 0c0,-0.115083 0.0940032,-0.208326 0.208706,-0.208326z"/>
  <path class="fil3" d="M12.845 23.2032l0.677203 0c0.114703,0 0.208516,0.0932436 0.208516,0.208326l0 0c0,0.115463 -0.0938133,0.208896 -0.208516,0.208896l-0.677203 0c-0.115083,0 -0.208706,-0.0934335 -0.208706,-0.208896l0 0c0,-0.115083 0.0936234,-0.208326 0.208706,-0.208326z"/>
  <path class="fil3" d="M8.46447 23.2032l3.32562 0c0.114703,0 0.208706,0.0932436 0.208706,0.208326l0 0c0,0.115463 -0.0940032,0.208896 -0.208706,0.208896l-3.32562 0c-0.115083,0 -0.208706,-0.0934335 -0.208706,-0.208896l0 0c0,-0.115083 0.0936234,-0.208326 0.208706,-0.208326z"/>
 </g>
</svg>
